<?xml version="1.0" encoding="UTF-8" standalone="no"?><!-- Generator: Gravit.io --><svg xmlns="http://www.w3.org/2000/svg" xmlns:xlink="http://www.w3.org/1999/xlink" style="isolation:isolate" viewBox="0 0 125 45" width="125pt" height="45pt"><defs><clipPath id="_clipPath_5dIlM9WXIq5aFy3pbmIrXG1J2kYC9hX5"><rect width="125" height="45"/></clipPath></defs><g clip-path="url(#_clipPath_5dIlM9WXIq5aFy3pbmIrXG1J2kYC9hX5)"><path d=" M 78.228 7.577 C 77.4 6.813 75.852 6.606 74.506 6.606 L 67.37 6.606 L 62.521 21.882 L 66.874 21.882 L 68.277 17.478 C 68.277 17.478 71.258 17.489 72.557 17.466 C 75.243 17.409 77.746 16.42 78.97 12.326 C 79.664 9.997 79.148 8.425 78.228 7.577 L 78.228 7.577 Z  M 74.932 12.266 C 74.563 13.362 74.155 13.776 73.647 14.114 C 73.09 14.472 72.624 14.571 71.889 14.609 C 71.257 14.642 69.188 14.637 69.188 14.637 L 70.861 9.391 L 73.327 9.391 C 73.967 9.391 74.471 9.459 74.799 9.732 C 75.137 10.005 75.467 10.686 74.932 12.266 L 74.932 12.266 Z  M 26.455 18.389 C 26.455 18.389 18.997 20.023 18.696 17.659 C 18.521 16.28 20.139 11.764 20.701 10.964 C 21.333 10.064 22.243 9.7 23.169 9.57 C 25.097 9.297 27.381 9.765 28.188 9.977 L 29.225 6.75 C 29.225 6.75 25.816 6.169 22.075 6.34 C 21.164 6.381 19.985 6.613 19.131 6.971 C 17.997 7.448 17.059 8.321 16.263 10.2 C 15.497 11.995 14.658 14.833 14.194 16.56 C 14.128 16.83 13.57 18.953 14.378 20.213 C 15.295 21.639 16.965 21.941 17.611 22.011 C 20.614 22.336 25.397 21.846 25.397 21.846 L 26.455 18.389 L 26.455 18.389 Z  M 43.765 7.976 C 42.614 6.482 40.779 6.389 37.612 6.329 C 35.527 6.285 33.173 6.325 31.888 7.192 C 31.231 7.633 30.63 8.15 29.996 9.893 C 29.715 10.688 28.597 14.001 28.115 15.655 C 27.671 17.209 27.459 18.522 27.872 19.72 C 28.193 20.644 28.831 21.273 29.972 21.787 C 31.11 22.289 35.304 22.174 36.861 22.086 C 38.418 21.995 39.355 21.547 40.049 21.009 C 40.978 20.291 41.44 19.327 41.894 18.132 C 42.262 17.15 42.846 15.325 43.739 12.352 C 44.273 10.555 44.657 9.138 43.765 7.976 L 43.765 7.976 Z  M 39.456 11.464 C 39.456 11.464 38.227 15.541 37.953 16.369 C 37.661 17.272 37.325 18.35 36.525 18.911 C 35.943 19.316 34.994 19.326 34.994 19.326 C 34.994 19.326 34.081 19.365 33.698 19.316 C 33.541 19.298 32.676 19.288 32.247 18.642 C 31.749 17.88 32.398 16.299 32.398 16.299 C 32.398 16.299 33.91 11.663 34.211 10.941 C 34.511 10.223 34.598 9.906 35.051 9.559 C 35.533 9.198 36.379 9.183 36.716 9.161 C 37.069 9.153 37.417 9.145 37.722 9.154 C 37.823 9.159 39.334 9.105 39.663 9.762 C 39.898 10.237 39.456 11.464 39.456 11.464 Z  M 87.534 6.613 C 85.83 6.613 85.329 6.922 84.569 7.401 C 83.749 7.916 82.942 9.391 82.458 10.091 C 82.011 10.738 74.956 21.846 74.956 21.846 L 79.248 21.846 L 81.229 18.613 L 86.431 18.613 L 86.245 21.887 L 90.532 21.887 L 91.154 6.614 L 87.534 6.613 L 87.534 6.613 Z  M 86.558 15.79 L 82.879 15.809 L 86.877 9.33 L 86.558 15.79 Z  M 106.301 19.304 L 105.615 19.312 C 106.145 18.914 107.184 15.654 107.947 13.026 C 108.568 10.874 109.177 9.061 108.094 7.837 C 106.94 6.527 104.938 6.389 101.95 6.328 C 99.605 6.276 97.603 6.38 96.349 7.2 C 95.523 7.735 94.99 8.319 94.336 10.058 C 94.041 10.853 93.1 13.731 92.648 15.386 C 92.153 17.201 91.847 18.27 92.246 19.648 C 92.562 20.719 93.324 21.396 94.351 21.78 C 95.055 22.036 96.151 22.089 97.519 22.11 C 97.53 22.103 98.064 21.304 99.307 20.555 C 100.038 20.112 100.986 19.773 101.638 19.617 C 102.324 19.451 103.285 19.33 104.059 19.316 C 104.66 19.309 105.046 19.327 105.046 19.327 C 104.139 19.413 103.053 19.599 101.986 19.975 C 100.807 20.39 99.738 21.162 99.07 22.109 C 98.44 23.009 98.309 24.028 98.309 24.028 C 98.309 24.028 98.414 23.814 98.706 23.533 C 99.229 23.021 99.96 22.571 101.114 22.336 C 101.855 22.183 102.945 22.109 104.178 22.114 L 109.445 22.114 L 110.296 19.305 L 106.301 19.305 L 106.301 19.304 L 106.301 19.304 Z  M 103.997 11.019 C 103.879 11.527 102.865 14.926 102.428 16.236 C 102.136 17.113 101.869 18.061 101.232 18.642 C 100.673 19.15 100.028 19.237 99.29 19.316 C 98.706 19.376 97.803 19.308 97.803 19.308 C 97.803 19.308 96.979 19.237 96.621 18.591 C 96.354 18.114 96.461 17.474 96.599 16.986 C 96.687 16.64 98.205 11.663 98.509 10.94 C 98.781 10.301 98.9 9.941 99.392 9.559 C 99.899 9.172 100.626 9.174 100.903 9.152 C 101.386 9.105 102.394 9.137 102.394 9.137 C 102.394 9.137 103.548 9.152 103.956 9.57 C 104.326 9.956 104.107 10.555 103.997 11.019 L 103.997 11.019 Z  M 47.501 6.555 L 42.653 21.845 L 46.697 21.845 L 50.499 10.003 L 52.102 19.362 L 52.924 19.362 L 59.996 9.773 L 56.163 21.845 L 60.335 21.845 L 65.186 6.613 C 65.186 6.613 61.024 6.606 60.875 6.613 C 60.71 6.613 58.902 6.528 57.651 8.115 C 57.072 8.848 54.479 12.473 54.479 12.473 C 54.479 12.473 54.024 9.906 53.785 8.657 C 53.517 7.269 52.552 6.708 51.162 6.596 C 50.489 6.542 47.501 6.555 47.501 6.555 L 47.501 6.555 Z  M 2 37.197 L 2 29.498 L 3.243 29.498 L 3.243 37.197 L 2 37.197 Z  M 9.151 37.197 L 9.151 33.546 C 9.151 32.839 8.958 32.429 8.307 32.429 C 7.451 32.429 6.824 33.33 6.824 34.459 L 6.824 37.197 L 5.604 37.197 L 5.604 31.528 L 6.768 31.528 C 6.768 31.824 6.745 32.315 6.688 32.634 L 6.7 32.645 C 7.03 31.915 7.714 31.414 8.673 31.414 C 9.962 31.414 10.361 32.225 10.361 33.226 L 10.361 37.198 L 9.151 37.198 L 9.151 37.197 Z  M 13.417 37.31 C 13.015 37.309 12.614 37.271 12.219 37.197 L 12.254 36.159 C 12.607 36.261 13.052 36.34 13.486 36.34 C 14.148 36.34 14.604 36.055 14.604 35.587 C 14.604 34.447 12.118 35.133 12.118 33.169 C 12.118 32.189 12.916 31.413 14.456 31.413 C 14.786 31.413 15.174 31.458 15.517 31.515 L 15.483 32.507 C 15.123 32.403 14.751 32.35 14.376 32.349 C 13.703 32.349 13.372 32.621 13.372 33.054 C 13.372 34.15 15.882 33.591 15.882 35.474 C 15.881 36.535 14.935 37.31 13.417 37.31 Z  M 21.367 34.197 C 21.367 35.726 20.705 36.319 19.736 36.319 C 19.394 36.319 19.108 36.284 18.846 36.203 L 18.846 34.46 C 18.846 33.49 19.336 32.417 20.249 32.417 C 21.013 32.417 21.367 33.056 21.367 34.197 L 21.367 34.197 Z  M 22.656 34.083 C 22.656 32.373 21.914 31.414 20.568 31.414 C 19.702 31.414 19.051 31.869 18.732 32.589 L 18.709 32.589 C 18.767 32.281 18.778 31.824 18.778 31.528 L 17.626 31.528 L 17.626 39.979 L 18.846 39.979 L 18.846 37.208 C 19.143 37.264 19.382 37.277 19.702 37.277 C 21.595 37.277 22.656 36.078 22.656 34.083 Z  M 24.948 30.683 C 24.515 30.683 24.161 30.342 24.161 29.92 C 24.161 29.498 24.515 29.156 24.948 29.156 C 25.37 29.156 25.724 29.486 25.724 29.92 C 25.724 30.342 25.371 30.683 24.948 30.683 Z  M 24.332 37.197 L 24.332 31.528 L 25.552 31.528 L 25.552 37.197 L 24.332 37.197 Z  M 30.799 32.61 C 29.67 32.406 29.122 33.194 29.122 34.892 L 29.122 37.197 L 27.902 37.197 L 27.902 31.528 L 29.065 31.528 C 29.065 31.848 29.03 32.349 28.951 32.782 L 28.973 32.782 C 29.225 32.017 29.795 31.311 30.855 31.414 L 30.799 32.61 Z  M 35.247 34.745 C 35.247 35.554 34.688 36.353 33.855 36.353 C 33.377 36.353 33.08 36.079 33.08 35.656 C 33.08 35.167 33.468 34.63 35.247 34.63 L 35.247 34.745 Z  M 36.502 37.197 C 36.479 36.68 36.467 36.163 36.467 35.645 L 36.467 33.33 C 36.467 32.167 35.988 31.414 34.255 31.414 C 33.572 31.417 32.896 31.545 32.259 31.79 L 32.373 32.827 C 32.852 32.531 33.536 32.373 34.061 32.373 C 34.951 32.373 35.247 32.737 35.247 33.445 L 35.247 33.809 C 33.206 33.809 31.906 34.562 31.906 35.862 C 31.906 36.763 32.522 37.311 33.491 37.311 C 34.392 37.311 35.099 36.809 35.373 36.137 L 35.384 36.148 C 35.338 36.455 35.327 36.832 35.327 37.198 L 36.502 37.198 L 36.502 37.197 Z  M 40.525 37.298 C 39.316 37.298 38.951 36.831 38.951 35.566 L 38.951 32.475 L 37.867 32.475 L 37.867 31.528 L 38.951 31.528 L 38.951 29.725 L 40.16 29.395 L 40.16 31.528 L 41.654 31.528 L 41.654 32.475 L 40.171 32.475 L 40.171 35.189 C 40.171 36.033 40.342 36.261 40.912 36.261 C 41.163 36.261 41.437 36.228 41.654 36.171 L 41.654 37.173 C 41.324 37.242 40.901 37.298 40.525 37.298 Z  M 44.152 30.683 C 43.719 30.683 43.365 30.342 43.365 29.92 C 43.365 29.498 43.719 29.156 44.152 29.156 C 44.574 29.156 44.928 29.486 44.928 29.92 C 44.928 30.342 44.574 30.683 44.152 30.683 Z  M 43.535 37.197 L 43.535 31.528 L 44.756 31.528 L 44.756 37.197 L 43.535 37.197 Z  M 50.79 34.333 C 50.79 35.645 50.128 36.261 49.341 36.261 C 48.395 36.261 47.893 35.587 47.893 34.312 C 47.893 33.011 48.611 32.441 49.352 32.441 C 50.322 32.441 50.79 33.124 50.79 34.333 L 50.79 34.333 Z  M 52.044 34.254 C 52.044 32.258 50.972 31.414 49.456 31.414 C 47.733 31.414 46.627 32.726 46.627 34.437 C 46.627 36.432 47.653 37.311 49.228 37.311 C 50.904 37.31 52.044 35.999 52.044 34.254 L 52.044 34.254 Z  M 57.485 37.197 L 57.485 33.546 C 57.485 32.839 57.291 32.429 56.641 32.429 C 55.785 32.429 55.158 33.33 55.158 34.459 L 55.158 37.197 L 53.937 37.197 L 53.937 31.528 L 55.101 31.528 C 55.101 31.824 55.078 32.315 55.021 32.634 L 55.032 32.645 C 55.363 31.915 56.047 31.414 57.005 31.414 C 58.294 31.414 58.694 32.225 58.694 33.226 L 58.694 37.198 L 57.485 37.198 L 57.485 37.197 L 57.485 37.197 Z  M 66.346 30.546 L 66.346 37.197 L 65.103 37.197 L 65.103 30.546 L 62.993 30.546 L 62.993 29.498 L 68.468 29.498 L 68.468 30.546 L 66.346 30.546 Z  M 72.14 33.58 L 69.734 33.58 C 69.835 32.818 70.316 32.315 70.999 32.315 C 71.718 32.315 72.163 32.805 72.14 33.58 Z  M 73.361 33.867 C 73.361 32.521 72.664 31.414 71.046 31.414 C 69.392 31.414 68.457 32.692 68.457 34.402 C 68.457 36.398 69.426 37.311 71.194 37.311 C 71.889 37.311 72.585 37.186 73.155 36.947 L 73.042 35.978 C 72.574 36.205 71.968 36.342 71.388 36.342 C 70.258 36.342 69.678 35.749 69.711 34.437 L 73.327 34.437 C 73.349 34.22 73.361 34.025 73.361 33.867 L 73.361 33.867 Z  M 77.378 37.288 C 75.916 37.288 74.855 36.569 74.855 34.549 C 74.855 32.749 75.779 31.436 77.73 31.436 C 78.152 31.436 78.585 31.493 78.962 31.607 L 78.837 32.668 C 78.472 32.529 78.085 32.456 77.695 32.452 C 76.657 32.452 76.132 33.215 76.132 34.414 C 76.132 35.451 76.509 36.239 77.639 36.239 C 78.072 36.239 78.54 36.137 78.872 35.965 L 78.972 37.003 C 78.598 37.15 78.003 37.288 77.378 37.288 L 77.378 37.288 Z  M 84.117 37.197 L 84.117 33.546 C 84.117 32.839 83.924 32.429 83.273 32.429 C 82.417 32.429 81.79 33.33 81.79 34.47 L 81.79 37.197 L 80.57 37.197 L 80.57 28.87 L 81.79 28.87 L 81.79 31.436 C 81.79 31.79 81.768 32.269 81.689 32.577 L 81.71 32.589 C 82.041 31.882 82.715 31.414 83.637 31.414 C 84.927 31.414 85.326 32.225 85.326 33.226 L 85.326 37.198 L 84.117 37.198 L 84.117 37.197 L 84.117 37.197 Z  M 91.223 37.197 L 91.223 33.546 C 91.223 32.839 91.03 32.429 90.38 32.429 C 89.523 32.429 88.897 33.33 88.897 34.459 L 88.897 37.197 L 87.676 37.197 L 87.676 31.528 L 88.839 31.528 C 88.839 31.824 88.818 32.315 88.76 32.634 L 88.771 32.645 C 89.103 31.915 89.788 31.414 90.745 31.414 C 92.034 31.414 92.432 32.225 92.432 33.226 L 92.432 37.198 L 91.223 37.198 L 91.223 37.197 L 91.223 37.197 Z  M 98.238 34.333 C 98.238 35.645 97.576 36.261 96.789 36.261 C 95.841 36.261 95.34 35.587 95.34 34.312 C 95.34 33.011 96.058 32.441 96.801 32.441 C 97.77 32.441 98.238 33.124 98.238 34.333 L 98.238 34.333 Z  M 99.492 34.254 C 99.492 32.258 98.421 31.414 96.902 31.414 C 95.18 31.414 94.075 32.726 94.075 34.437 C 94.075 36.432 95.101 37.311 96.675 37.311 C 98.352 37.31 99.492 35.999 99.492 34.254 L 99.492 34.254 Z  M 101.157 37.197 L 101.157 28.871 L 102.377 28.871 L 102.377 37.197 L 101.157 37.197 Z  M 108.183 34.333 C 108.183 35.645 107.522 36.261 106.735 36.261 C 105.787 36.261 105.285 35.587 105.285 34.312 C 105.285 33.011 106.003 32.441 106.747 32.441 C 107.716 32.441 108.183 33.124 108.183 34.333 L 108.183 34.333 Z  M 109.438 34.254 C 109.438 32.258 108.366 31.414 106.848 31.414 C 105.126 31.414 104.021 32.726 104.021 34.437 C 104.021 36.432 105.046 37.311 106.621 37.311 C 108.297 37.31 109.438 35.999 109.438 34.254 L 109.438 34.254 Z  M 114.537 33.511 C 114.537 34.254 114.035 34.676 113.27 34.676 C 112.449 34.676 111.993 34.241 111.993 33.5 C 111.993 32.805 112.473 32.314 113.283 32.314 C 114.068 32.315 114.537 32.758 114.537 33.511 L 114.537 33.511 Z  M 116.191 32.486 L 116.191 31.528 L 114.273 31.528 C 113.967 31.454 113.654 31.416 113.339 31.414 C 111.72 31.414 110.807 32.417 110.807 33.615 C 110.807 34.322 111.092 34.904 111.652 35.211 C 111.252 35.383 111.001 35.77 111.001 36.18 C 111.001 36.557 111.217 36.853 111.56 37.025 C 111.068 37.276 110.647 37.812 110.647 38.451 C 110.647 39.545 111.571 40.115 113.054 40.115 C 114.879 40.115 116.11 39.147 116.11 37.938 C 116.11 36.877 115.415 36.294 114.183 36.294 L 113.214 36.294 C 112.53 36.294 112.278 36.18 112.278 35.895 C 112.278 35.735 112.38 35.565 112.609 35.474 C 112.779 35.508 113.042 35.531 113.258 35.531 C 114.854 35.531 115.71 34.665 115.71 33.432 C 115.71 33.021 115.562 32.678 115.323 32.485 L 116.191 32.485 L 114.901 38.098 C 114.901 38.713 114.309 39.169 113.248 39.169 C 112.426 39.169 111.856 38.829 111.856 38.223 C 111.856 37.835 112.097 37.493 112.483 37.277 C 112.574 37.289 112.69 37.289 112.79 37.289 L 113.851 37.289 C 114.571 37.289 114.901 37.608 114.901 38.099 L 116.191 32.486 L 116.191 32.486 Z  M 120.65 37.743 C 119.978 39.512 119.43 40.058 118.152 40.058 C 117.923 40.058 117.615 40.025 117.387 39.979 L 117.48 38.907 C 117.731 38.999 117.958 39.032 118.221 39.032 C 118.792 39.032 119.098 38.77 119.465 37.801 L 119.692 37.197 L 117.571 31.528 L 118.94 31.528 L 119.863 34.117 C 120.046 34.619 120.183 35.121 120.307 35.6 L 120.32 35.6 C 120.433 35.143 120.674 34.413 120.878 33.832 L 121.689 31.528 L 123 31.528 L 120.65 37.743 L 120.65 37.743 Z " fill-rule="evenodd" fill="rgb(46,46,46)"/></g></svg>